<?xml version="1.0" standalone="no"?>
<!DOCTYPE svg PUBLIC "-//W3C//DTD SVG 1.1//EN" "http://www.w3.org/Graphics/SVG/1.1/DTD/svg11.dtd" >
<svg xmlns="http://www.w3.org/2000/svg">
    <defs>
        <font id="TESCOModern-Italic">
            <font-face font-family="TESCO Modern"
                       units-per-em="1000"
                       ascent="1114"
                       descent="-304"
                       bbox="-87 -271 1256 1103"
                    />
            <missing-glyph horiz-adv-x="0" />
            
            <glyph glyph-name="" unicode="&#xD;" horiz-adv-x="0" d=" M0,0"/> 
            <glyph glyph-name="0" unicode="&#x30;" horiz-adv-x="583" d=" M481,708 Q583,580 583,461 Q583,348 549.5,240.5 Q516,133 443,62.5 Q370,-8 258,-8 Q167,-8 116.5,56 Q66,120 66,239 Q66,352 99.5,459.5 Q133,567 206,637.5 Q279,708 391,708 M302,631 Q201,506 177,417 Q153,328 153,250 Q153,162 184,115.5 Q215,69 273,69 Q347,69 397.5,131.5 Q448,194 472,283 Q496,372 496,450 Q496,538 465,584.5 Q434,631 376,631"/> 
            <glyph glyph-name="1" unicode="&#x31;" horiz-adv-x="348" d=" M211,0 L126,0 L237,570 L100,494 L119,591 L317,700 L348,700"/> 
            <glyph glyph-name="2" unicode="&#x32;" horiz-adv-x="520" d=" M332,365 Q385,420 409.5,457.5 Q434,495 434,538 Q434,577 405,603.5 Q376,630 331,630 Q279,630 244,598.5 Q209,567 191,510 L117,533 Q178,708 341,708 Q392,708 433,687.5 Q474,667 497,630 Q520,593 520,547 Q520,503 505,466.5 Q490,430 463.5,397 Q437,364 390,315 L165,78 L443,78 L429,0 L4,0 L10,32"/> 
            <glyph glyph-name="3" unicode="&#x33;" horiz-adv-x="541" d=" M159,629 Q278,708 358,708 Q444,708 492.5,662.5 Q541,617 541,548 Q541,482 506.5,438 Q472,394 413,372 Q507,327 507,225 Q507,162 476.5,109 Q446,56 388.5,24 Q331,-8 253,-8 Q197,-8 150,14.5 Q103,37 74,78 Q45,119 40,172 L120,197 Q129,135 167.5,102.5 Q206,70 265,70 Q336,70 378,110.5 Q420,151 420,214 Q420,276 381,307 Q342,338 280,338 L254,338 L267,410 L300,410 Q373,410 415,443 Q457,476 457,535 Q457,580 426.5,606 Q396,632 345,632 Q295,632 257,604.5 Q219,577 201,530 L134,556"/> 
            <glyph glyph-name="4" unicode="&#x34;" horiz-adv-x="524" d=" M17,150 L24,184 L429,700 L524,700 L432,227 L520,227 L505,150 L417,150 L388,0 L304,0 L333,150 M415,569 L152,227 L348,227"/> 
            <glyph glyph-name="5" unicode="&#x35;" horiz-adv-x="532" d=" M138,-8 Q27,84 19,161 L101,188 Q108,132 140.5,101 Q173,70 228,70 Q280,70 319,95.5 Q358,121 379.5,164 Q401,207 401,259 Q401,322 369.5,354.5 Q338,387 281,387 Q195,387 134,306 L66,320 L179,700 L532,700 L517,622 L236,622 L172,416 Q198,437 234,450.5 Q270,464 308,464 Q394,464 441.5,414.5 Q489,365 489,273 Q489,193 455,129 Q421,65 360,28.5 Q299,-8 220,-8"/> 
            <glyph glyph-name="6" unicode="&#x36;" horiz-adv-x="583" d=" M171,-8 Q55,125 55,256 Q55,373 95,477 Q135,581 211.5,644.5 Q288,708 392,708 Q469,708 516.5,671 Q564,634 583,573 L509,541 Q480,632 379,632 Q298,632 237,562 Q176,492 154,360 Q182,399 230,423.5 Q278,448 336,448 Q392,448 436,423 Q480,398 505,353 Q530,308 530,249 Q530,177 495.5,118.5 Q461,60 401,26 Q341,-8 266,-8 M322,68 Q398,112 420.5,150.5 Q443,189 443,237 Q443,298 409,334 Q375,370 319,370 Q266,370 227.5,346 Q189,322 168.5,282.5 Q148,243 148,199 Q148,141 183.5,104.5 Q219,68 276,68"/> 
            <glyph glyph-name="7" unicode="&#x37;" horiz-adv-x="522" d=" M399,622 L107,622 L122,700 L522,700 L516,669 L120,0 L31,0"/> 
            <glyph glyph-name="8" unicode="&#x38;" horiz-adv-x="545" d=" M421,708 Q501,665 523,627.5 Q545,590 545,544 Q545,481 511.5,436.5 Q478,392 422,369 Q508,321 508,220 Q508,149 474.5,97.5 Q441,46 383,19 Q325,-8 253,-8 Q194,-8 147.5,16 Q101,40 75,82 Q49,124 49,176 Q49,248 91,301 Q133,354 201,381 Q172,401 154,433 Q136,465 136,507 Q136,560 165.5,606 Q195,652 248,680 Q301,708 368,708 M319,631 Q255,597 237,568.5 Q219,540 219,506 Q219,461 247.5,435 Q276,409 320,409 Q380,409 421,444 Q462,479 462,534 Q462,578 433.5,604.5 Q405,631 359,631 M248,332 Q174,290 155,256.5 Q136,223 136,185 Q136,130 171,100 Q206,70 262,70 Q304,70 340.5,88 Q377,106 399,139 Q421,172 421,215 Q421,266 387,299 Q353,332 299,332"/> 
            <glyph glyph-name="9" unicode="&#x39;" horiz-adv-x="555" d=" M439,708 Q555,575 555,444 Q555,324 515.5,220.5 Q476,117 400,54.5 Q324,-8 219,-8 Q144,-8 95,29 Q46,66 28,127 L102,159 Q134,68 232,68 Q313,68 374,138 Q435,208 457,341 Q429,302 381.5,277 Q334,252 277,252 Q222,252 177,277 Q132,302 106.5,347 Q81,392 81,451 Q81,523 114.5,581.5 Q148,640 207.5,674 Q267,708 343,708 M289,632 Q213,589 190.5,550 Q168,511 168,463 Q168,401 202,365.5 Q236,330 292,330 Q344,330 383,354 Q422,378 442.5,417.5 Q463,457 463,501 Q463,559 427.5,595.5 Q392,632 335,632"/> 
            <glyph glyph-name="ƒ" unicode="&#x192;" horiz-adv-x="482" d=" M215,516 L223,555 Q239,632 288.5,670 Q338,708 412,708 Q431,708 450.5,703.5 Q470,699 482,693 L453,621 Q429,633 399,633 Q362,633 337.5,611 Q313,589 304,544 L299,516 L416,516 L400,441 L283,441 L187,-57 Q157,-212 -1,-212 Q-23,-212 -43,-207.5 Q-63,-203 -74,-197 L-43,-125 Q-17,-137 10,-137 Q50,-137 73,-115.5 Q96,-94 105,-48 L199,441 L113,441 L128,516"/> 
            <glyph glyph-name="π" unicode="&#x3C0;" horiz-adv-x="639" d=" M639,516 L624,440 L537,440 L452,0 L369,0 L454,440 L227,440 L142,0 L59,0 L144,440 L57,440 L72,516"/> 
            <glyph glyph-name="Л" unicode="&#x41B;" horiz-adv-x="627" d=" M627,700 L491,0 L402,0 L522,616 L299,616 L181,173 Q155,79 104.5,39.5 Q54,0 -43,0 L-27,84 Q22,84 53,106.5 Q84,129 99,186 L236,700"/> 
            <glyph glyph-name="М" unicode="&#x41C;" horiz-adv-x="773" d=" M169,700 L274,700 L373,212 L660,700 L773,700 L637,0 L549,0 L649,516 L382,64 L318,64 L222,516 L121,0 L33,0"/> 
            <glyph glyph-name="Н" unicode="&#x41D;" horiz-adv-x="670" d=" M169,700 L258,700 L202,414 L525,414 L581,700 L670,700 L533,0 L445,0 L509,332 L186,332 L122,0 L33,0"/> 
            <glyph glyph-name="О" unicode="&#x41E;" horiz-adv-x="708" d=" M516,708 Q640,636 674,567 Q708,498 708,403 Q708,293 657.5,198.5 Q607,104 518,48 Q429,-8 320,-8 Q247,-8 186,25 Q125,58 88.5,123 Q52,188 52,279 Q52,393 100.5,491.5 Q149,590 236.5,649 Q324,708 435,708 M342,626 Q212,527 177,447 Q142,367 142,281 Q142,179 195.5,126.5 Q249,74 332,74 Q413,74 478.5,121 Q544,168 581,242.5 Q618,317 618,396 Q618,509 565,567.5 Q512,626 425,626"/> 
            <glyph glyph-name="П" unicode="&#x41F;" horiz-adv-x="658" d=" M169,700 L658,700 L522,0 L434,0 L554,616 L241,616 L121,0 L33,0"/> 
            <glyph glyph-name="Р" unicode="&#x420;" horiz-adv-x="589" d=" M121,0 L33,0 L169,700 L398,700 Q453,700 496.5,677 Q540,654 564.5,612.5 Q589,571 589,515 Q589,450 559,400 Q529,350 472.5,322.5 Q416,295 338,295 L179,295 M418,377 Q499,449 499,510 Q499,560 468.5,589 Q438,618 384,618 L242,618 L194,377 L348,377"/> 
            <glyph glyph-name="С" unicode="&#x421;" horiz-adv-x="701" d=" M252,-8 Q128,57 89.5,123 Q51,189 51,283 Q51,388 101,486.5 Q151,585 242,646.5 Q333,708 450,708 Q554,708 618.5,654 Q683,600 701,516 L619,484 Q604,548 559.5,587 Q515,626 438,626 Q354,626 286,578.5 Q218,531 180,454 Q142,377 142,292 Q142,184 195,129 Q248,74 334,74 Q412,74 470,111.5 Q528,149 564,216 L636,183 Q587,88 509.5,40 Q432,-8 322,-8"/> 
            <glyph glyph-name="Т" unicode="&#x422;" horiz-adv-x="588" d=" M588,700 L572,618 L370,618 L250,0 L161,0 L281,618 L79,618 L95,700"/> 
            <glyph glyph-name="У" unicode="&#x423;" horiz-adv-x="587" d=" M199,205 L90,700 L177,700 L264,312 L493,700 L587,700 L166,0 L78,0"/> 
            <glyph glyph-name="л" unicode="&#x43B;" horiz-adv-x="532" d=" M532,516 L432,0 L348,0 L433,438 L257,438 L170,142 Q146,61 100,30.5 Q54,0 -26,0 L-11,78 Q31,78 55,96.5 Q79,115 92,160 L195,516"/> 
            <glyph glyph-name="м" unicode="&#x43C;" horiz-adv-x="614" d=" M133,516 L232,516 L304,169 L510,516 L614,516 L514,0 L430,0 L500,359 L314,46 L255,46 L187,359 L117,0 L33,0"/> 
            <glyph glyph-name="н" unicode="&#x43D;" horiz-adv-x="534" d=" M133,516 L217,516 L178,315 L411,315 L450,516 L534,516 L434,0 L350,0 L396,237 L163,237 L117,0 L33,0"/> 
            <glyph glyph-name="о" unicode="&#x43E;" horiz-adv-x="557" d=" M194,-8 Q95,48 66.5,99 Q38,150 38,215 Q38,297 75.5,368 Q113,439 182,481.5 Q251,524 341,524 Q442,524 499.5,461 Q557,398 557,297 Q557,215 518.5,145 Q480,75 411,33.5 Q342,-8 254,-8 M324,70 Q417,131 443.5,181.5 Q470,232 470,291 Q470,362 433.5,404 Q397,446 331,446 Q272,446 225,414.5 Q178,383 151.5,331.5 Q125,280 125,222 Q125,152 163,111 Q201,70 268,70"/> 
            <glyph glyph-name="п" unicode="&#x43F;" horiz-adv-x="531" d=" M531,516 L431,0 L348,0 L433,438 L195,438 L110,0 L26,0 L126,516"/> 
            <glyph glyph-name="р" unicode="&#x440;" horiz-adv-x="556" d=" M126,516 L210,516 L194,436 Q222,475 266.5,499.5 Q311,524 368,524 Q425,524 467.5,495 Q510,466 533,415.5 Q556,365 556,301 Q556,216 519,145.5 Q482,75 417.5,33.5 Q353,-8 275,-8 Q222,-8 183,17.5 Q144,43 125,82 L70,-204 L-14,-204 M328,70 Q417,132 443,183 Q469,234 469,292 Q469,363 435.5,404.5 Q402,446 344,446 Q289,446 244,412 Q199,378 174,323.5 Q149,269 149,211 Q149,147 183.5,108.5 Q218,70 274,70"/> 
            <glyph glyph-name="с" unicode="&#x441;" horiz-adv-x="536" d=" M189,-8 Q92,48 65,98 Q38,148 38,213 Q38,295 75.5,366.5 Q113,438 181.5,481 Q250,524 339,524 Q417,524 466.5,489 Q516,454 536,392 L461,356 Q426,446 328,446 Q269,446 222.5,414.5 Q176,383 150.5,331.5 Q125,280 125,223 Q125,154 161,112 Q197,70 261,70 Q312,70 349,92 Q386,114 419,161 L488,123 Q409,-8 250,-8"/> 
            <glyph glyph-name="т" unicode="&#x442;" horiz-adv-x="459" d=" M459,516 L444,438 L297,438 L212,0 L128,0 L213,438 L66,438 L81,516"/> 
            <glyph glyph-name="у" unicode="&#x443;" horiz-adv-x="506" d=" M146,23 L58,516 L143,516 L206,129 L412,516 L506,516 L112,-204 L23,-204"/> 
            <glyph glyph-name="‘" unicode="&#x2018;" horiz-adv-x="291" d=" M258,664 Q212,611 206,583 Q226,575 237.5,560 Q249,545 249,525 Q249,494 227.5,474 Q206,454 177,454 Q149,454 131.5,472 Q114,490 114,522 Q114,573 162,621.5 Q210,670 277,708 L291,686"/> 
            <glyph glyph-name="’" unicode="&#x2019;" horiz-adv-x="284" d=" M141,498 Q187,551 193,579 Q173,587 161.5,602 Q150,617 150,637 Q150,668 171,688 Q192,708 221,708 Q250,708 267,690.5 Q284,673 284,641 Q284,590 236.5,540.5 Q189,491 122,454 L108,477"/> 
            <glyph glyph-name="‚" unicode="&#x201A;" horiz-adv-x="178" d=" M35,-55 Q81,-2 87,25 Q44,43 44,84 Q44,115 65,134.5 Q86,154 115,154 Q143,154 160.5,136.5 Q178,119 178,87 Q178,36 130,-13.5 Q82,-63 15,-99 L1,-77"/> 
            <glyph glyph-name="…" unicode="&#x2026;" horiz-adv-x="711" d=" M40,86 Q75,122 102,122 Q129,122 147,104 Q165,86 165,59 Q165,32 147,14.5 Q129,-3 102,-3 Q75,-3 57.5,14.5 Q40,32 40,59 M313,86 Q348,122 375,122 Q402,122 420,104 Q438,86 438,59 Q438,32 420,14.5 Q402,-3 375,-3 Q348,-3 330.5,14.5 Q313,32 313,59 M586,86 Q621,122 649,122 Q675,122 693,104 Q711,86 711,59 Q711,32 693,14.5 Q675,-3 649,-3 Q621,-3 603.5,14.5 Q586,32 586,59"/> 
            <glyph glyph-name="‰" unicode="&#x2030;" horiz-adv-x="1164" d=" M117,-31 L71,15 L750,731 L796,686 M142,388 Q65,463 65,525 Q65,601 116,655 Q140,681 175,694.5 Q210,708 252,708 Q309,708 347.5,671 Q386,634 386,571 Q386,495 335,441 Q284,388 198,388 M253,457 Q313,516 313,562 Q313,599 293.5,619 Q274,639 241,639 Q197,639 167,609.5 Q137,580 137,534 Q137,497 157,477 Q177,457 210,457 M532,-8 Q455,67 455,129 Q455,205 506,259 Q557,312 643,312 Q699,312 737.5,274.5 Q776,237 776,175 Q776,99 725,45 Q674,-8 588,-8 M920,-8 Q843,67 843,129 Q843,205 894,259 Q945,312 1031,312 Q1087,312 1125.5,274.5 Q1164,237 1164,175 Q1164,99 1113,45 Q1062,-8 976,-8 M643,61 Q703,120 703,166 Q703,203 683.5,223 Q664,243 631,243 Q587,243 557,213.5 Q527,184 527,138 Q527,101 547,81 Q567,61 600,61 M1032,61 Q1092,120 1092,166 Q1092,203 1072,223 Q1052,243 1019,243 Q975,243 945,213.5 Q915,184 915,138 Q915,101 935,81 Q955,61 988,61"/> 
            <glyph glyph-name="‹" unicode="&#x2039;" horiz-adv-x="376" d=" M376,541 L358,442 L134,306 L302,163 L286,79 L47,282 L60,344"/> 
            <glyph glyph-name="›" unicode="&#x203A;" horiz-adv-x="353" d=" M23,79 L42,178 L263,314 L96,456 L114,541 L353,338 L341,279"/> 
            <glyph glyph-name="⁄" unicode="&#x2044;" horiz-adv-x="735" d=" M56,-31 L10,15 L689,731 L735,686"/> 
            <glyph glyph-name="⁰" unicode="&#x2070;" horiz-adv-x="402" d=" M151,296 Q77,378 77,455 Q77,517 99,574 Q121,631 165.5,667.5 Q210,704 275,704 Q331,704 366.5,662.5 Q402,621 402,549 Q402,486 380.5,428 Q359,370 314.5,333 Q270,296 206,296 M250,357 Q306,410 321.5,453 Q337,496 337,543 Q337,591 318,617 Q299,643 265,643 Q229,643 201,616.5 Q173,590 157.5,547 Q142,504 142,455 Q142,407 162,382 Q182,357 215,357"/> 
            <glyph glyph-name="⁴" unicode="&#x2074;" horiz-adv-x="360" d=" M49,375 L54,402 L284,700 L360,700 L308,436 L357,436 L345,375 L296,375 L282,300 L218,300 L232,375 M276,598 L154,436 L244,436"/> 
            <glyph glyph-name="⁵" unicode="&#x2075;" horiz-adv-x="375" d=" M127,391 Q163,357 195,357 Q237,357 258.5,381.5 Q280,406 280,443 Q280,473 261,491 Q242,509 212,509 Q168,509 135,472 L86,483 L150,700 L375,700 L364,640 L193,640 L161,542 Q175,552 194.5,558.5 Q214,565 235,565 Q284,565 315,535 Q346,505 346,452 Q346,383 303.5,339.5 Q261,296 187,296 Q137,296 100,327 Q63,358 62,405 L125,417"/> 
            <glyph glyph-name="⁶" unicode="&#x2076;" horiz-adv-x="361" d=" M149,296 Q79,360 79,410 Q79,444 92.5,473 Q106,502 134,537 L267,704 L339,704 L221,552 Q234,560 254,560 Q300,560 330.5,528 Q361,496 361,444 Q361,376 316,336 Q271,296 202,296 M248,357 Q295,402 295,438 Q295,465 277,482 Q259,499 231,499 Q192,499 168.5,476 Q145,453 145,418 Q145,390 164,373.5 Q183,357 212,357"/> 
            <glyph glyph-name="⁷" unicode="&#x2077;" horiz-adv-x="365" d=" M268,639 L114,639 L125,700 L365,700 L360,673 L134,300 L62,300"/> 
            <glyph glyph-name="⁸" unicode="&#x2078;" horiz-adv-x="366" d=" M139,296 Q70,357 70,404 Q70,447 95.5,477 Q121,507 159,518 Q142,528 130.5,546.5 Q119,565 119,588 Q119,637 156.5,670.5 Q194,704 255,704 Q307,704 336.5,676 Q366,648 366,607 Q366,541 297,509 Q319,499 332.5,477 Q346,455 346,425 Q346,370 304,333 Q262,296 195,296 M263,541 Q302,575 302,603 Q302,625 288,637 Q274,649 248,649 Q219,649 200,631 Q181,613 181,589 Q181,567 195,554 Q209,541 232,541 M237,357 Q281,395 281,426 Q281,452 264,467.5 Q247,483 219,483 Q181,483 159,462.5 Q137,442 137,410 Q137,385 155,371 Q173,357 200,357"/> 
            <glyph glyph-name="⁹" unicode="&#x2079;" horiz-adv-x="381" d=" M238,448 Q229,440 206,440 Q163,441 130.5,473.5 Q98,506 98,556 Q98,624 142.5,664 Q187,704 256,704 Q311,704 346,672.5 Q381,641 381,591 Q381,557 367.5,527.5 Q354,498 326,463 L196,300 L124,300 M268,501 Q314,547 314,582 Q314,610 295,626.5 Q276,643 248,643 Q211,643 187.5,620.5 Q164,598 164,562 Q164,535 182.5,518 Q201,501 229,501"/> 
            <glyph glyph-name="₀" unicode="&#x2080;" horiz-adv-x="304" d=" M65589,65328 Q65515,65410 65515,65487 Q65515,65549 65537,65606 Q65559,65663 65603.5,65699.5 Q65648,65736 65713,65736 Q65769,65736 65804.5,65694.5 Q65840,65653 65840,65581 Q65840,65518 65818.5,65460 Q65797,65402 65752.5,65365 Q65708,65328 65644,65328 M65688,65389 Q65744,65442 65759.5,65485 Q65775,65528 65775,65575 Q65775,65623 65756,65649 Q65737,65675 65703,65675 Q65667,65675 65639,65648.5 Q65611,65622 65595.5,65579 Q65580,65536 65580,65487 Q65580,65439 65600,65414 Q65620,65389 65653,65389"/> 
            <glyph glyph-name="₁" unicode="&#x2081;" horiz-adv-x="186" d=" M65645,65332 L65580,65332 L65640,65641 L65547,65600 L65561,65671 L65698,65732 L65722,65732"/> 
            <glyph glyph-name="₂" unicode="&#x2082;" horiz-adv-x="270" d=" M65689,65538 Q65718,65567 65729.5,65584.5 Q65741,65602 65741,65624 Q65741,65647 65724.5,65661 Q65708,65675 65680,65675 Q65653,65675 65632,65657 Q65611,65639 65602,65610 L65548,65626 Q65562,65677 65597,65706.5 Q65632,65736 65690,65736 Q65743,65736 65774.5,65707 Q65806,65678 65806,65631 Q65806,65594 65788.5,65565.5 Q65771,65537 65731,65498 L65623,65393 L65772,65393 L65760,65332 L65497,65332 L65502,65357"/> 
            <glyph glyph-name="₃" unicode="&#x2083;" horiz-adv-x="290" d=" M65592,65328 Q65522,65394 65522,65448 L65588,65459 Q65588,65426 65606,65407.5 Q65624,65389 65656,65389 Q65695,65389 65717.5,65410.5 Q65740,65432 65740,65465 Q65740,65490 65722.5,65503 Q65705,65516 65673,65516 L65641,65516 L65652,65572 L65685,65572 Q65718,65572 65739,65589.5 Q65760,65607 65760,65633 Q65760,65655 65744.5,65668 Q65729,65681 65705,65681 Q65677,65681 65657,65665.5 Q65637,65650 65627,65622 L65574,65640 Q65586,65683 65621,65711.5 Q65656,65740 65714,65740 Q65768,65740 65797,65712.5 Q65826,65685 65826,65644 Q65826,65611 65808.5,65586 Q65791,65561 65761,65547 Q65782,65537 65794,65516.5 Q65806,65496 65806,65466 Q65806,65407 65763.5,65367.5 Q65721,65328 65650,65328"/> 
            <glyph glyph-name="₄" unicode="&#x2084;" horiz-adv-x="268" d=" M65493,65407 L65498,65434 L65728,65732 L65804,65732 L65752,65468 L65801,65468 L65789,65407 L65740,65407 L65726,65332 L65662,65332 L65676,65407 M65720,65630 L65598,65468 L65688,65468"/> 
            <glyph glyph-name="₅" unicode="&#x2085;" horiz-adv-x="277" d=" M65565,65423 Q65601,65389 65633,65389 Q65675,65389 65696.5,65413.5 Q65718,65438 65718,65475 Q65718,65505 65699,65523 Q65680,65541 65650,65541 Q65606,65541 65573,65504 L65524,65515 L65588,65732 L65813,65732 L65802,65672 L65631,65672 L65599,65574 Q65613,65584 65632.5,65590.5 Q65652,65597 65673,65597 Q65722,65597 65753,65567 Q65784,65537 65784,65484 Q65784,65415 65741.5,65371.5 Q65699,65328 65625,65328 Q65575,65328 65538,65359 Q65501,65390 65500,65437 L65563,65449"/> 
            <glyph glyph-name="₆" unicode="&#x2086;" horiz-adv-x="260" d=" M65584,65328 Q65514,65392 65514,65442 Q65514,65476 65527.5,65505 Q65541,65534 65569,65569 L65702,65736 L65774,65736 L65656,65584 Q65669,65592 65689,65592 Q65735,65592 65765.5,65560 Q65796,65528 65796,65476 Q65796,65408 65751,65368 Q65706,65328 65637,65328 M65683,65389 Q65730,65434 65730,65470 Q65730,65497 65712,65514 Q65694,65531 65666,65531 Q65627,65531 65603.5,65508 Q65580,65485 65580,65450 Q65580,65422 65599,65405.5 Q65618,65389 65647,65389"/> 
            <glyph glyph-name="₇" unicode="&#x2087;" horiz-adv-x="263" d=" M65702,65671 L65548,65671 L65559,65732 L65799,65732 L65794,65705 L65568,65332 L65496,65332"/> 
            <glyph glyph-name="₈" unicode="&#x2088;" horiz-adv-x="268" d=" M65577,65328 Q65508,65389 65508,65436 Q65508,65479 65533.5,65509 Q65559,65539 65597,65550 Q65580,65560 65568.5,65578.5 Q65557,65597 65557,65620 Q65557,65669 65594.5,65702.5 Q65632,65736 65693,65736 Q65745,65736 65774.5,65708 Q65804,65680 65804,65639 Q65804,65573 65735,65541 Q65757,65531 65770.5,65509 Q65784,65487 65784,65457 Q65784,65402 65742,65365 Q65700,65328 65633,65328 M65701,65573 Q65740,65607 65740,65635 Q65740,65657 65726,65669 Q65712,65681 65686,65681 Q65657,65681 65638,65663 Q65619,65645 65619,65621 Q65619,65599 65633,65586 Q65647,65573 65670,65573 M65675,65389 Q65719,65427 65719,65458 Q65719,65484 65702,65499.5 Q65685,65515 65657,65515 Q65619,65515 65597,65494.5 Q65575,65474 65575,65442 Q65575,65417 65593,65403 Q65611,65389 65638,65389"/> 
            <glyph glyph-name="₉" unicode="&#x2089;" horiz-adv-x="287" d=" M65680,65480 Q65671,65472 65648,65472 Q65605,65473 65572.5,65505.5 Q65540,65538 65540,65588 Q65540,65656 65584.5,65696 Q65629,65736 65698,65736 Q65753,65736 65788,65704.5 Q65823,65673 65823,65623 Q65823,65589 65809.5,65559.5 Q65796,65530 65768,65495 L65638,65332 L65566,65332 M65710,65533 Q65756,65579 65756,65614 Q65756,65642 65737,65658.5 Q65718,65675 65690,65675 Q65653,65675 65629.5,65652.5 Q65606,65630 65606,65594 Q65606,65567 65624.5,65550 Q65643,65533 65671,65533"/> 
            <glyph glyph-name="€" unicode="&#x20AC;" horiz-adv-x="696" d=" M398,626 Q285,537 251,463 L500,463 L448,387 L224,387 Q215,349 212,313 L471,313 L419,237 L212,237 Q219,153 259,113.5 Q299,74 366,74 Q426,74 467,100.5 Q508,127 550,185 L615,139 Q565,66 506,29 Q447,-8 350,-8 Q259,-8 196,54 Q133,116 122,237 L27,237 L79,313 L121,313 Q124,354 131,387 L56,387 L108,463 L154,463 Q196,571 281.5,639.5 Q367,708 488,708 Q567,708 621,666.5 Q675,625 696,558 L617,516 Q576,626 474,626"/> 
            <glyph glyph-name="™" unicode="&#x2122;" horiz-adv-x="814" d=" M198,640 L91,640 L102,700 L384,700 L373,640 L265,640 L199,300 L133,300 M455,700 L523,700 L583,435 L739,700 L814,700 L737,300 L670,300 L720,559 L584,337 L544,337 L495,559 L445,300 L378,300"/> 
            <glyph glyph-name="Ω" unicode="&#x2126;" horiz-adv-x="631" d=" M57,74 L180,74 Q74,246 74,418 Q74,507 107.5,572.5 Q141,638 202,673 Q263,708 344,708 Q425,708 486,673 Q547,638 580.5,572.5 Q614,507 614,418 Q614,249 508,74 L631,74 L631,0 L409,0 L409,46 Q525,223 525,415 Q525,509 476.5,567.5 Q428,626 344,626 Q260,626 211.5,567.5 Q163,509 163,415 Q163,221 279,46 L279,0 L57,0"/> 
            <glyph glyph-name="⅓" unicode="&#x2153;" horiz-adv-x="839" d=" M605,65532 Q535,65598 535,65652 L601,65663 Q601,65630 619,65611.5 Q637,65593 669,65593 Q708,65593 730.5,65614.5 Q753,65636 753,65669 Q753,65694 735.5,65707 Q718,65720 686,65720 L654,65720 L665,65776 L698,65776 Q731,65776 752,65793.5 Q773,65811 773,65837 Q773,65859 757.5,65872 Q742,65885 718,65885 Q690,65885 670,65869.5 Q650,65854 640,65826 L587,65844 Q599,65887 634,65915.5 Q669,65944 727,65944 Q781,65944 810,65916.5 Q839,65889 839,65848 Q839,65815 821.5,65790 Q804,65765 774,65751 Q795,65741 807,65720.5 Q819,65700 819,65670 Q819,65611 776.5,65571.5 Q734,65532 663,65532 M103,-31 L57,15 L736,731 L782,686 M463,300 L398,300 L458,609 L365,568 L379,639 L516,700 L540,700"/> 
            <glyph glyph-name="⅔" unicode="&#x2154;" horiz-adv-x="941" d=" M260,506 Q289,535 300.5,552.5 Q312,570 312,592 Q312,615 295.5,629 Q279,643 251,643 Q224,643 203,625 Q182,607 173,578 L119,594 Q133,645 168,674.5 Q203,704 261,704 Q314,704 345.5,675 Q377,646 377,599 Q377,562 359.5,533.5 Q342,505 302,466 L194,361 L343,361 L331,300 L68,300 L73,325 M206,-31 L160,15 L839,731 L885,686 M707,65532 Q637,65598 637,65652 L703,65663 Q703,65630 721,65611.5 Q739,65593 771,65593 Q810,65593 832.5,65614.5 Q855,65636 855,65669 Q855,65694 837.5,65707 Q820,65720 788,65720 L756,65720 L767,65776 L800,65776 Q833,65776 854,65793.5 Q875,65811 875,65837 Q875,65859 859.5,65872 Q844,65885 820,65885 Q792,65885 772,65869.5 Q752,65854 742,65826 L689,65844 Q701,65887 736,65915.5 Q771,65944 829,65944 Q883,65944 912,65916.5 Q941,65889 941,65848 Q941,65815 923.5,65790 Q906,65765 876,65751 Q897,65741 909,65720.5 Q921,65700 921,65670 Q921,65611 878.5,65571.5 Q836,65532 765,65532"/> 
            <glyph glyph-name="⅛" unicode="&#x215B;" horiz-adv-x="831" d=" M463,300 L398,300 L458,609 L365,568 L379,639 L516,700 L540,700 M103,-31 L57,15 L736,731 L782,686 M604,65532 Q535,65593 535,65640 Q535,65683 560.5,65713 Q586,65743 624,65754 Q607,65764 595.5,65782.5 Q584,65801 584,65824 Q584,65873 621.5,65906.5 Q659,65940 720,65940 Q772,65940 801.5,65912 Q831,65884 831,65843 Q831,65777 762,65745 Q784,65735 797.5,65713 Q811,65691 811,65661 Q811,65606 769,65569 Q727,65532 660,65532 M728,65777 Q767,65811 767,65839 Q767,65861 753,65873 Q739,65885 713,65885 Q684,65885 665,65867 Q646,65849 646,65825 Q646,65803 660,65790 Q674,65777 697,65777 M702,65593 Q746,65631 746,65662 Q746,65688 729,65703.5 Q712,65719 684,65719 Q646,65719 624,65698.5 Q602,65678 602,65646 Q602,65621 620,65607 Q638,65593 665,65593"/> 
            <glyph glyph-name="⅜" unicode="&#x215C;" horiz-adv-x="940" d=" M160,296 Q90,362 90,416 L156,427 Q156,394 174,375.5 Q192,357 224,357 Q263,357 285.5,378.5 Q308,400 308,433 Q308,458 290.5,471 Q273,484 241,484 L209,484 L220,540 L253,540 Q286,540 307,557.5 Q328,575 328,601 Q328,623 312.5,636 Q297,649 273,649 Q245,649 225,633.5 Q205,618 195,590 L142,608 Q154,651 189,679.5 Q224,708 282,708 Q336,708 365,680.5 Q394,653 394,612 Q394,579 376.5,554 Q359,529 329,515 Q350,505 362,484.5 Q374,464 374,434 Q374,375 331.5,335.5 Q289,296 218,296 M212,-31 L166,15 L845,731 L891,686 M713,65532 Q644,65593 644,65640 Q644,65683 669.5,65713 Q695,65743 733,65754 Q716,65764 704.5,65782.5 Q693,65801 693,65824 Q693,65873 730.5,65906.5 Q768,65940 829,65940 Q881,65940 910.5,65912 Q940,65884 940,65843 Q940,65777 871,65745 Q893,65735 906.5,65713 Q920,65691 920,65661 Q920,65606 878,65569 Q836,65532 769,65532 M837,65777 Q876,65811 876,65839 Q876,65861 862,65873 Q848,65885 822,65885 Q793,65885 774,65867 Q755,65849 755,65825 Q755,65803 769,65790 Q783,65777 806,65777 M811,65593 Q855,65631 855,65662 Q855,65688 838,65703.5 Q821,65719 793,65719 Q755,65719 733,65698.5 Q711,65678 711,65646 Q711,65621 729,65607 Q747,65593 774,65593"/> 
            <glyph glyph-name="⅝" unicode="&#x215D;" horiz-adv-x="890" d=" M127,391 Q163,357 195,357 Q237,357 258.5,381.5 Q280,406 280,443 Q280,473 261,491 Q242,509 212,509 Q168,509 135,472 L86,483 L150,700 L375,700 L364,640 L193,640 L161,542 Q175,552 194.5,558.5 Q214,565 235,565 Q284,565 315,535 Q346,505 346,452 Q346,383 303.5,339.5 Q261,296 187,296 Q137,296 100,327 Q63,358 62,405 L125,417 M162,-31 L116,15 L795,731 L841,686 M663,65532 Q594,65593 594,65640 Q594,65683 619.5,65713 Q645,65743 683,65754 Q666,65764 654.5,65782.5 Q643,65801 643,65824 Q643,65873 680.5,65906.5 Q718,65940 779,65940 Q831,65940 860.5,65912 Q890,65884 890,65843 Q890,65777 821,65745 Q843,65735 856.5,65713 Q870,65691 870,65661 Q870,65606 828,65569 Q786,65532 719,65532 M787,65777 Q826,65811 826,65839 Q826,65861 812,65873 Q798,65885 772,65885 Q743,65885 724,65867 Q705,65849 705,65825 Q705,65803 719,65790 Q733,65777 756,65777 M761,65593 Q805,65631 805,65662 Q805,65688 788,65703.5 Q771,65719 743,65719 Q705,65719 683,65698.5 Q661,65678 661,65646 Q661,65621 679,65607 Q697,65593 724,65593"/> 
            <glyph glyph-name="⅞" unicode="&#x215E;" horiz-adv-x="792" d=" M268,639 L114,639 L125,700 L365,700 L360,673 L134,300 L62,300 M65,-31 L19,15 L698,731 L744,686 M565,65532 Q496,65593 496,65640 Q496,65683 521.5,65713 Q547,65743 585,65754 Q568,65764 556.5,65782.5 Q545,65801 545,65824 Q545,65873 582.5,65906.5 Q620,65940 681,65940 Q733,65940 762.5,65912 Q792,65884 792,65843 Q792,65777 723,65745 Q745,65735 758.5,65713 Q772,65691 772,65661 Q772,65606 730,65569 Q688,65532 621,65532 M689,65777 Q728,65811 728,65839 Q728,65861 714,65873 Q700,65885 674,65885 Q645,65885 626,65867 Q607,65849 607,65825 Q607,65803 621,65790 Q635,65777 658,65777 M663,65593 Q707,65631 707,65662 Q707,65688 690,65703.5 Q673,65719 645,65719 Q607,65719 585,65698.5 Q563,65678 563,65646 Q563,65621 581,65607 Q599,65593 626,65593"/> 
            <glyph glyph-name="∂" unicode="&#x2202;" horiz-adv-x="547" d=" M132,632 Q242,708 314,708 Q430,708 488.5,619 Q547,530 547,360 Q547,257 516,174 Q485,91 419.5,41.5 Q354,-8 256,-8 Q196,-8 149.5,19 Q103,46 77,94.5 Q51,143 51,207 Q51,290 87,360 Q123,430 188,471 Q253,512 338,512 Q372,512 406,499.5 Q440,487 458,467 Q449,545 411.5,589 Q374,633 313,633 Q232,633 190,549 L108,572 M272,437 Q187,372 164,320 Q141,268 141,211 Q141,148 173.5,107.5 Q206,67 263,67 Q319,67 362.5,98.5 Q406,130 429.5,181.5 Q453,233 453,292 Q453,362 420.5,399.5 Q388,437 328,437"/> 
            <glyph glyph-name="∆" unicode="&#x2206;" horiz-adv-x="565" d=" M246,700 L324,700 L565,22 L565,0 L6,0 L6,22 M460,76 L285,586 L110,76"/> 
            <glyph glyph-name="∏" unicode="&#x220F;" horiz-adv-x="470" d=" M470,700 L470,0 L386,0 L386,625 L181,625 L181,0 L97,0 L97,700"/> 
            <glyph glyph-name="√" unicode="&#x221A;" horiz-adv-x="528" d=" M142,313 L41,313 L41,389 L191,389 L277,127 L450,708 L528,708 L311,0 L244,0"/> 
            <glyph glyph-name="∞" unicode="&#x221E;" horiz-adv-x="837" d=" M594,168 Q493,229 454,288 Q414,229 364,198.5 Q314,168 256,168 Q171,168 120.5,220.5 Q70,273 70,359 Q70,445 120.5,497.5 Q171,550 256,550 Q314,550 364,519.5 Q414,489 454,430 Q493,489 543.5,519.5 Q594,550 652,550 Q737,550 787,497.5 Q837,445 837,359 Q837,273 787,220.5 Q737,168 652,168 M310,241 Q385,300 414,359 Q385,418 347.5,447.5 Q310,477 270,477 Q217,477 185.5,445.5 Q154,414 154,359 Q154,304 185.5,272.5 Q217,241 270,241 M690,241 Q754,304 754,359 Q754,414 722,445.5 Q690,477 637,477 Q598,477 560.5,447.5 Q523,418 494,359 Q523,300 560.5,270.5 Q598,241 637,241"/> 
            <glyph glyph-name="∫" unicode="&#x222B;" horiz-adv-x="496" d=" M249,627 Q345,708 423,708 Q445,708 465,703.5 Q485,699 496,693 L464,621 Q451,627 439.5,630 Q428,633 412,633 Q375,633 350.5,611 Q326,589 317,544 L203,-38 Q185,-132 139,-172 Q93,-212 15,-212 Q-7,-212 -28.5,-207.5 Q-50,-203 -62,-197 L-30,-125 Q-6,-137 23,-137 Q63,-137 86,-115.5 Q109,-94 118,-48 L231,534"/> 
            <glyph glyph-name="≈" unicode="&#x2248;" horiz-adv-x="546" d=" M117,515 Q192,563 234,563 Q262,563 281.5,556 Q301,549 328,534 Q351,520 369,513.5 Q387,507 410,507 Q436,507 461.5,519 Q487,531 509,553 L546,503 Q516,463 478.5,439 Q441,415 399,415 Q371,415 351.5,422 Q332,429 305,444 Q282,458 264,464.5 Q246,471 223,471 Q197,471 171.5,459 Q146,447 124,425 L87,475 M116,462 Q191,510 233,510 Q261,510 280.5,503 Q300,496 327,481 Q350,467 368,460.5 Q386,454 409,454 Q435,454 460.5,466 Q486,478 508,500 L545,450 Q515,410 477.5,386 Q440,362 398,362 Q370,362 350.5,369 Q331,376 304,391 Q281,405 263,411.5 Q245,418 222,418 Q196,418 170.5,406 Q145,394 123,372 L86,422"/> 
            <glyph glyph-name="≠" unicode="&#x2260;" horiz-adv-x="504" d=" M329,433 L391,541 L455,504 L414,433 L504,433 L504,358 L372,358 L316,262 L504,262 L504,187 L274,187 L212,79 L148,116 L189,187 L99,187 L99,262 L231,262 L287,358 L99,358 L99,433"/> 
            <glyph glyph-name="◊" unicode="&#x25CA;" horiz-adv-x="510" d=" M247,700 L330,700 L510,350 L330,0 L247,0 L67,350 M289,622 L151,350 L289,78 L426,350"/> 
            <glyph glyph-name="" unicode="&#xF8FF;" horiz-adv-x="689" d=" M689,13 Q676,0 667,0 L660,1 L393,78 L126,1 L119,0 Q110,0 103.5,6.5 Q97,13 97,22 L97,617 Q97,624 101.5,630.5 Q106,637 113,639 L383,717 L393,719 L403,717 L673,639 Q680,637 684.5,630.5 Q689,624 689,617 L689,22 M141,602 Q145,540 176,488 Q207,436 258.5,403.5 Q310,371 371,366 L371,669 M476,371 Q579,436 610,488 Q641,540 645,602 L415,669 L415,366 M371,118 L371,322 Q298,328 237,365.5 Q176,403 140,463 L140,51 M609,403 Q488,328 415,322 L415,118 L646,51 L646,463"/> 
            <glyph glyph-name="" unicode="&#xD;" horiz-adv-x="569" d=" M447,187 L164,187 L59,0 L-39,0 L360,700 L443,700 L569,0 L480,0 M433,269 L380,574 L209,269"/> 
            <glyph glyph-name="0" unicode="&#x30;" horiz-adv-x="520" d=" M332,365 Q385,420 409.5,457.5 Q434,495 434,538 Q434,577 405,603.5 Q376,630 331,630 Q279,630 244,598.5 Q209,567 191,510 L117,533 Q178,708 341,708 Q392,708 433,687.5 Q474,667 497,630 Q520,593 520,547 Q520,503 505,466.5 Q490,430 463.5,397 Q437,364 390,315 L165,78 L443,78 L429,0 L4,0 L10,32"/> 
            <glyph glyph-name="1" unicode="&#x31;" horiz-adv-x="541" d=" M159,629 Q278,708 358,708 Q444,708 492.5,662.5 Q541,617 541,548 Q541,482 506.5,438 Q472,394 413,372 Q507,327 507,225 Q507,162 476.5,109 Q446,56 388.5,24 Q331,-8 253,-8 Q197,-8 150,14.5 Q103,37 74,78 Q45,119 40,172 L120,197 Q129,135 167.5,102.5 Q206,70 265,70 Q336,70 378,110.5 Q420,151 420,214 Q420,276 381,307 Q342,338 280,338 L254,338 L267,410 L300,410 Q373,410 415,443 Q457,476 457,535 Q457,580 426.5,606 Q396,632 345,632 Q295,632 257,604.5 Q219,577 201,530 L134,556"/> 
            <glyph glyph-name="2" unicode="&#x32;" horiz-adv-x="524" d=" M17,150 L24,184 L429,700 L524,700 L432,227 L520,227 L505,150 L417,150 L388,0 L304,0 L333,150 M415,569 L152,227 L348,227"/> 
            <glyph glyph-name="3" unicode="&#x33;" horiz-adv-x="532" d=" M138,-8 Q27,84 19,161 L101,188 Q108,132 140.5,101 Q173,70 228,70 Q280,70 319,95.5 Q358,121 379.5,164 Q401,207 401,259 Q401,322 369.5,354.5 Q338,387 281,387 Q195,387 134,306 L66,320 L179,700 L532,700 L517,622 L236,622 L172,416 Q198,437 234,450.5 Q270,464 308,464 Q394,464 441.5,414.5 Q489,365 489,273 Q489,193 455,129 Q421,65 360,28.5 Q299,-8 220,-8"/> 
            <glyph glyph-name="4" unicode="&#x34;" horiz-adv-x="583" d=" M171,-8 Q55,125 55,256 Q55,373 95,477 Q135,581 211.5,644.5 Q288,708 392,708 Q469,708 516.5,671 Q564,634 583,573 L509,541 Q480,632 379,632 Q298,632 237,562 Q176,492 154,360 Q182,399 230,423.5 Q278,448 336,448 Q392,448 436,423 Q480,398 505,353 Q530,308 530,249 Q530,177 495.5,118.5 Q461,60 401,26 Q341,-8 266,-8 M322,68 Q398,112 420.5,150.5 Q443,189 443,237 Q443,298 409,334 Q375,370 319,370 Q266,370 227.5,346 Q189,322 168.5,282.5 Q148,243 148,199 Q148,141 183.5,104.5 Q219,68 276,68"/> 
            <glyph glyph-name="5" unicode="&#x35;" horiz-adv-x="522" d=" M399,622 L107,622 L122,700 L522,700 L516,669 L120,0 L31,0"/> 
            <glyph glyph-name="6" unicode="&#x36;" horiz-adv-x="545" d=" M421,708 Q501,665 523,627.5 Q545,590 545,544 Q545,481 511.5,436.5 Q478,392 422,369 Q508,321 508,220 Q508,149 474.5,97.5 Q441,46 383,19 Q325,-8 253,-8 Q194,-8 147.5,16 Q101,40 75,82 Q49,124 49,176 Q49,248 91,301 Q133,354 201,381 Q172,401 154,433 Q136,465 136,507 Q136,560 165.5,606 Q195,652 248,680 Q301,708 368,708 M319,631 Q255,597 237,568.5 Q219,540 219,506 Q219,461 247.5,435 Q276,409 320,409 Q380,409 421,444 Q462,479 462,534 Q462,578 433.5,604.5 Q405,631 359,631 M248,332 Q174,290 155,256.5 Q136,223 136,185 Q136,130 171,100 Q206,70 262,70 Q304,70 340.5,88 Q377,106 399,139 Q421,172 421,215 Q421,266 387,299 Q353,332 299,332"/> 
            <glyph glyph-name="7" unicode="&#x37;" horiz-adv-x="555" d=" M439,708 Q555,575 555,444 Q555,324 515.5,220.5 Q476,117 400,54.5 Q324,-8 219,-8 Q144,-8 95,29 Q46,66 28,127 L102,159 Q134,68 232,68 Q313,68 374,138 Q435,208 457,341 Q429,302 381.5,277 Q334,252 277,252 Q222,252 177,277 Q132,302 106.5,347 Q81,392 81,451 Q81,523 114.5,581.5 Q148,640 207.5,674 Q267,708 343,708 M289,632 Q213,589 190.5,550 Q168,511 168,463 Q168,401 202,365.5 Q236,330 292,330 Q344,330 383,354 Q422,378 442.5,417.5 Q463,457 463,501 Q463,559 427.5,595.5 Q392,632 335,632"/> 
            <glyph glyph-name="8" unicode="&#x38;" horiz-adv-x="543" d=" M111,147 Q182,69 243,69 Q319,69 363.5,117 Q408,165 408,244 Q408,300 377,333 Q346,366 292,366 Q255,366 222,349 L187,398 L394,623 L149,623 L164,700 L543,700 L538,674 L310,432 Q320,435 337,435 Q406,435 450.5,386 Q495,337 495,254 Q495,179 464.5,119.5 Q434,60 374.5,26 Q315,-8 232,-8 Q175,-8 128.5,18 Q82,44 55.5,90.5 Q29,137 30,195 L113,207"/> 
            <glyph glyph-name="9" unicode="&#x39;" horiz-adv-x="509" d=" M182,-8 Q92,43 67.5,87 Q43,131 43,184 Q43,234 60,275.5 Q77,317 117,368 L384,708 L481,708 L270,437 Q292,448 321,448 Q375,448 418,423.5 Q461,399 485,353.5 Q509,308 509,248 Q509,176 474,117.5 Q439,59 377.5,25.5 Q316,-8 241,-8 M300,68 Q379,113 401,152.5 Q423,192 423,242 Q423,300 391,335 Q359,370 303,370 Q254,370 214.5,345 Q175,320 152.5,278 Q130,236 130,189 Q130,132 164,100 Q198,68 252,68"/> 
            <glyph glyph-name="ƒ" unicode="&#x192;" horiz-adv-x="592" d=" M285,391 L491,700 L592,700 L366,376 L482,376 L468,302 L315,302 L299,220 L452,220 L438,146 L284,146 L255,0 L166,0 L195,146 L42,146 L56,220 L209,220 L225,302 L72,302 L86,376 L205,376 L104,700 L201,700"/> 
            <glyph glyph-name="π" unicode="&#x3C0;" horiz-adv-x="348" d=" M211,0 L126,0 L237,570 L100,494 L119,591 L317,700 L348,700"/> 
            <glyph glyph-name="Л" unicode="&#x41B;" horiz-adv-x="670" d=" M169,700 L258,700 L202,414 L525,414 L581,700 L670,700 L533,0 L445,0 L509,332 L186,332 L122,0 L33,0"/> 
            <glyph glyph-name="М" unicode="&#x41C;" horiz-adv-x="708" d=" M516,708 Q640,636 674,567 Q708,498 708,403 Q708,293 657.5,198.5 Q607,104 518,48 Q429,-8 320,-8 Q247,-8 186,25 Q125,58 88.5,123 Q52,188 52,279 Q52,393 100.5,491.5 Q149,590 236.5,649 Q324,708 435,708 M342,626 Q212,527 177,447 Q142,367 142,281 Q142,179 195.5,126.5 Q249,74 332,74 Q413,74 478.5,121 Q544,168 581,242.5 Q618,317 618,396 Q618,509 565,567.5 Q512,626 425,626"/> 
            <glyph glyph-name="Н" unicode="&#x41D;" horiz-adv-x="658" d=" M169,700 L658,700 L522,0 L434,0 L554,616 L241,616 L121,0 L33,0"/> 
            <glyph glyph-name="О" unicode="&#x41E;" horiz-adv-x="589" d=" M121,0 L33,0 L169,700 L398,700 Q453,700 496.5,677 Q540,654 564.5,612.5 Q589,571 589,515 Q589,450 559,400 Q529,350 472.5,322.5 Q416,295 338,295 L179,295 M418,377 Q499,449 499,510 Q499,560 468.5,589 Q438,618 384,618 L242,618 L194,377 L348,377"/> 
            <glyph glyph-name="П" unicode="&#x41F;" horiz-adv-x="701" d=" M252,-8 Q128,57 89.5,123 Q51,189 51,283 Q51,388 101,486.5 Q151,585 242,646.5 Q333,708 450,708 Q554,708 618.5,654 Q683,600 701,516 L619,484 Q604,548 559.5,587 Q515,626 438,626 Q354,626 286,578.5 Q218,531 180,454 Q142,377 142,292 Q142,184 195,129 Q248,74 334,74 Q412,74 470,111.5 Q528,149 564,216 L636,183 Q587,88 509.5,40 Q432,-8 322,-8"/> 
            <glyph glyph-name="Р" unicode="&#x420;" horiz-adv-x="588" d=" M588,700 L572,618 L370,618 L250,0 L161,0 L281,618 L79,618 L95,700"/> 
            <glyph glyph-name="С" unicode="&#x421;" horiz-adv-x="587" d=" M199,205 L90,700 L177,700 L264,312 L493,700 L587,700 L166,0 L78,0"/> 
            <glyph glyph-name="Т" unicode="&#x422;" horiz-adv-x="587" d=" M199,205 L90,700 L177,700 L264,312 L493,700 L587,700 L166,0 L78,0 M295,787 Q244,838 244,876 Q244,882 246,896 L310,896 Q309,892 309,883 Q309,867 318,857.5 Q327,848 346,848 Q368,848 381.5,861 Q395,874 400,896 L465,896 Q455,844 422.5,815.5 Q390,787 336,787"/> 
            <glyph glyph-name="У" unicode="&#x423;" horiz-adv-x="754" d=" M293,0 L307,72 L302,72 Q233,72 176.5,101.5 Q120,131 87.5,185.5 Q55,240 55,310 Q55,404 100.5,476.5 Q146,549 226,588.5 Q306,628 406,628 L415,628 L429,700 L516,700 L502,628 L509,628 Q577,628 633,596 Q689,564 721.5,507.5 Q754,451 754,382 Q754,292 711,221.5 Q668,151 588,111.5 Q508,72 402,72 L394,72 L380,0 M390,549 Q316,549 260,518 Q204,487 173.5,434 Q143,381 143,316 Q143,240 190,196 Q237,152 313,152 L322,152 L399,549 M410,152 L420,152 Q489,152 545,179 Q601,206 633.5,256.5 Q666,307 666,375 Q666,452 619,500.5 Q572,549 497,549 L487,549"/> 
            <glyph glyph-name="л" unicode="&#x43B;" horiz-adv-x="534" d=" M133,516 L217,516 L178,315 L411,315 L450,516 L534,516 L434,0 L350,0 L396,237 L163,237 L117,0 L33,0"/> 
            <glyph glyph-name="м" unicode="&#x43C;" horiz-adv-x="557" d=" M194,-8 Q95,48 66.5,99 Q38,150 38,215 Q38,297 75.5,368 Q113,439 182,481.5 Q251,524 341,524 Q442,524 499.5,461 Q557,398 557,297 Q557,215 518.5,145 Q480,75 411,33.5 Q342,-8 254,-8 M324,70 Q417,131 443.5,181.5 Q470,232 470,291 Q470,362 433.5,404 Q397,446 331,446 Q272,446 225,414.5 Q178,383 151.5,331.5 Q125,280 125,222 Q125,152 163,111 Q201,70 268,70"/> 
            <glyph glyph-name="н" unicode="&#x43D;" horiz-adv-x="531" d=" M531,516 L431,0 L348,0 L433,438 L195,438 L110,0 L26,0 L126,516"/> 
            <glyph glyph-name="о" unicode="&#x43E;" horiz-adv-x="556" d=" M126,516 L210,516 L194,436 Q222,475 266.5,499.5 Q311,524 368,524 Q425,524 467.5,495 Q510,466 533,415.5 Q556,365 556,301 Q556,216 519,145.5 Q482,75 417.5,33.5 Q353,-8 275,-8 Q222,-8 183,17.5 Q144,43 125,82 L70,-204 L-14,-204 M328,70 Q417,132 443,183 Q469,234 469,292 Q469,363 435.5,404.5 Q402,446 344,446 Q289,446 244,412 Q199,378 174,323.5 Q149,269 149,211 Q149,147 183.5,108.5 Q218,70 274,70"/> 
            <glyph glyph-name="п" unicode="&#x43F;" horiz-adv-x="536" d=" M189,-8 Q92,48 65,98 Q38,148 38,213 Q38,295 75.5,366.5 Q113,438 181.5,481 Q250,524 339,524 Q417,524 466.5,489 Q516,454 536,392 L461,356 Q426,446 328,446 Q269,446 222.5,414.5 Q176,383 150.5,331.5 Q125,280 125,223 Q125,154 161,112 Q197,70 261,70 Q312,70 349,92 Q386,114 419,161 L488,123 Q409,-8 250,-8"/> 
            <glyph glyph-name="р" unicode="&#x440;" horiz-adv-x="459" d=" M459,516 L444,438 L297,438 L212,0 L128,0 L213,438 L66,438 L81,516"/> 
            <glyph glyph-name="с" unicode="&#x441;" horiz-adv-x="506" d=" M146,23 L58,516 L143,516 L206,129 L412,516 L506,516 L112,-204 L23,-204"/> 
            <glyph glyph-name="т" unicode="&#x442;" horiz-adv-x="506" d=" M146,23 L58,516 L143,516 L206,129 L412,516 L506,516 L112,-204 L23,-204 M244,591 Q193,642 193,680 Q193,686 195,700 L259,700 Q258,696 258,687 Q258,671 267,661.5 Q276,652 295,652 Q317,652 330.5,665 Q344,678 349,700 L414,700 Q404,648 371.5,619.5 Q339,591 285,591"/> 
            <glyph glyph-name="у" unicode="&#x443;" horiz-adv-x="673" d=" M224,-204 L262,-8 Q199,-8 147.5,22.5 Q96,53 67,105 Q38,157 38,219 Q38,304 79,374 Q120,444 195,484 Q270,524 366,524 L402,708 L486,708 L450,524 Q517,524 567.5,493 Q618,462 645.5,409.5 Q673,357 673,293 Q673,208 632.5,139.5 Q592,71 517.5,31.5 Q443,-8 346,-8 L308,-204 M345,446 Q279,446 228.5,416.5 Q178,387 151,336.5 Q124,286 124,225 Q124,156 164.5,113 Q205,70 271,70 L278,70 L351,446 M361,70 L368,70 Q430,70 480,99 Q530,128 558.5,177.5 Q587,227 587,285 Q587,358 548.5,402 Q510,446 441,446 L435,446"/> 
            <glyph glyph-name="‘" unicode="&#x2018;" horiz-adv-x="178" d=" M35,-55 Q81,-2 87,25 Q44,43 44,84 Q44,115 65,134.5 Q86,154 115,154 Q143,154 160.5,136.5 Q178,119 178,87 Q178,36 130,-13.5 Q82,-63 15,-99 L1,-77"/> 
            <glyph glyph-name="’" unicode="&#x2019;" horiz-adv-x="560" d=" M336,159 Q410,203 443,250 L512,212 Q437,89 291,81 L265,-50 L183,-50 L210,90 Q143,109 102.5,166 Q62,223 62,302 Q62,375 92.5,441 Q123,507 179.5,551.5 Q236,596 310,609 L338,750 L420,750 L393,612 Q458,605 500,570.5 Q542,536 560,481 L485,445 Q450,535 352,535 Q293,535 246.5,503.5 Q200,472 174.5,420.5 Q149,369 149,312 Q149,243 185,201 Q221,159 285,159"/> 
            <glyph glyph-name="‚" unicode="&#x201A;" horiz-adv-x="538" d=" M90,243 L90,307 Q90,371 123,421 L35,489 L105,558 L172,472 Q223,509 287,509 Q351,509 401,472 L468,558 L538,489 L450,421 Q484,372 484,307 Q484,242 450,193 L538,125 L468,56 L401,142 Q351,105 287,105 Q223,105 172,142 L105,56 L35,125 L123,193 M168,250 Q233,179 287,179 Q340,179 372.5,214.5 Q405,250 405,307 Q405,364 372.5,399.5 Q340,435 287,435 Q233,435 200.5,399.5 Q168,364 168,307"/> 
            <glyph glyph-name="…" unicode="&#x2026;" horiz-adv-x="263" d=" M263,407 Q226,370 198,370 Q170,370 151.5,388.5 Q133,407 133,435 Q133,463 151.5,481 Q170,499 198,499 Q226,499 244.5,481 Q263,463 263,435 M138,292 L202,292 L130,-204 L17,-204"/> 
            <glyph glyph-name="‰" unicode="&#x2030;" horiz-adv-x="689" d=" M689,13 Q676,0 667,0 L660,1 L393,78 L126,1 L119,0 Q110,0 103.5,6.5 Q97,13 97,22 L97,617 Q97,624 101.5,630.5 Q106,637 113,639 L383,717 L393,719 L403,717 L673,639 Q680,637 684.5,630.5 Q689,624 689,617 L689,22 M141,602 Q145,540 176,488 Q207,436 258.5,403.5 Q310,371 371,366 L371,669 M476,371 Q579,436 610,488 Q641,540 645,602 L415,669 L415,366 M371,118 L371,322 Q298,328 237,365.5 Q176,403 140,463 L140,51 M609,403 Q488,328 415,322 L415,118 L646,51 L646,463"/> 
            <glyph glyph-name="‹" unicode="&#x2039;" horiz-adv-x="351" d=" M35,-55 Q81,-2 87,25 Q44,43 44,84 Q44,115 65,134.5 Q86,154 115,154 Q143,154 160.5,136.5 Q178,119 178,87 Q178,36 130,-13.5 Q82,-63 15,-99 L1,-77 M207,-55 Q254,-2 260,25 Q216,43 216,84 Q216,115 237.5,134.5 Q259,154 288,154 Q316,154 333.5,136.5 Q351,119 351,87 Q351,36 303,-13.5 Q255,-63 188,-99 L174,-77"/> 
            <glyph glyph-name="›" unicode="&#x203A;" horiz-adv-x="464" d=" M258,664 Q212,611 206,583 Q226,575 237.5,560 Q249,545 249,525 Q249,494 227.5,474 Q206,454 177,454 Q149,454 131.5,472 Q114,490 114,522 Q114,573 162,621.5 Q210,670 277,708 L291,686 M430,664 Q384,611 378,583 Q399,575 410,560.5 Q421,546 421,525 Q421,494 400,474 Q379,454 350,454 Q322,454 304.5,472 Q287,490 287,522 Q287,573 335,621.5 Q383,670 450,708 L464,686"/> 
            <glyph glyph-name="⁄" unicode="&#x2044;" horiz-adv-x="839" d=" M605,65532 Q535,65598 535,65652 L601,65663 Q601,65630 619,65611.5 Q637,65593 669,65593 Q708,65593 730.5,65614.5 Q753,65636 753,65669 Q753,65694 735.5,65707 Q718,65720 686,65720 L654,65720 L665,65776 L698,65776 Q731,65776 752,65793.5 Q773,65811 773,65837 Q773,65859 757.5,65872 Q742,65885 718,65885 Q690,65885 670,65869.5 Q650,65854 640,65826 L587,65844 Q599,65887 634,65915.5 Q669,65944 727,65944 Q781,65944 810,65916.5 Q839,65889 839,65848 Q839,65815 821.5,65790 Q804,65765 774,65751 Q795,65741 807,65720.5 Q819,65700 819,65670 Q819,65611 776.5,65571.5 Q734,65532 663,65532 M103,-31 L57,15 L736,731 L782,686 M463,300 L398,300 L458,609 L365,568 L379,639 L516,700 L540,700"/> 
            <glyph glyph-name="⁰" unicode="&#x2070;" horiz-adv-x="377" d=" M260,506 Q289,535 300.5,552.5 Q312,570 312,592 Q312,615 295.5,629 Q279,643 251,643 Q224,643 203,625 Q182,607 173,578 L119,594 Q133,645 168,674.5 Q203,704 261,704 Q314,704 345.5,675 Q377,646 377,599 Q377,562 359.5,533.5 Q342,505 302,466 L194,361 L343,361 L331,300 L68,300 L73,325"/> 
            <glyph glyph-name="⁴" unicode="&#x2074;" horiz-adv-x="361" d=" M149,296 Q79,360 79,410 Q79,444 92.5,473 Q106,502 134,537 L267,704 L339,704 L221,552 Q234,560 254,560 Q300,560 330.5,528 Q361,496 361,444 Q361,376 316,336 Q271,296 202,296 M248,357 Q295,402 295,438 Q295,465 277,482 Q259,499 231,499 Q192,499 168.5,476 Q145,453 145,418 Q145,390 164,373.5 Q183,357 212,357"/> 
            <glyph glyph-name="⁵" unicode="&#x2075;" horiz-adv-x="365" d=" M268,639 L114,639 L125,700 L365,700 L360,673 L134,300 L62,300"/> 
            <glyph glyph-name="⁶" unicode="&#x2076;" horiz-adv-x="366" d=" M139,296 Q70,357 70,404 Q70,447 95.5,477 Q121,507 159,518 Q142,528 130.5,546.5 Q119,565 119,588 Q119,637 156.5,670.5 Q194,704 255,704 Q307,704 336.5,676 Q366,648 366,607 Q366,541 297,509 Q319,499 332.5,477 Q346,455 346,425 Q346,370 304,333 Q262,296 195,296 M263,541 Q302,575 302,603 Q302,625 288,637 Q274,649 248,649 Q219,649 200,631 Q181,613 181,589 Q181,567 195,554 Q209,541 232,541 M237,357 Q281,395 281,426 Q281,452 264,467.5 Q247,483 219,483 Q181,483 159,462.5 Q137,442 137,410 Q137,385 155,371 Q173,357 200,357"/> 
            <glyph glyph-name="⁷" unicode="&#x2077;" horiz-adv-x="381" d=" M238,448 Q229,440 206,440 Q163,441 130.5,473.5 Q98,506 98,556 Q98,624 142.5,664 Q187,704 256,704 Q311,704 346,672.5 Q381,641 381,591 Q381,557 367.5,527.5 Q354,498 326,463 L196,300 L124,300 M268,501 Q314,547 314,582 Q314,610 295,626.5 Q276,643 248,643 Q211,643 187.5,620.5 Q164,598 164,562 Q164,535 182.5,518 Q201,501 229,501"/> 
            <glyph glyph-name="⁸" unicode="&#x2078;" horiz-adv-x="735" d=" M56,-31 L10,15 L689,731 L735,686"/> 
            <glyph glyph-name="⁹" unicode="&#x2079;" horiz-adv-x="819" d=" M103,-31 L57,15 L736,731 L782,686 M463,300 L398,300 L458,609 L365,568 L379,639 L516,700 L540,700 M702,65742 Q731,65771 742.5,65788.5 Q754,65806 754,65828 Q754,65851 737.5,65865 Q721,65879 693,65879 Q666,65879 645,65861 Q624,65843 615,65814 L561,65830 Q575,65881 610,65910.5 Q645,65940 703,65940 Q756,65940 787.5,65911 Q819,65882 819,65835 Q819,65798 801.5,65769.5 Q784,65741 744,65702 L636,65597 L785,65597 L773,65536 L510,65536 L515,65561"/> 
            <glyph glyph-name="₀" unicode="&#x2080;" horiz-adv-x="270" d=" M65689,65538 Q65718,65567 65729.5,65584.5 Q65741,65602 65741,65624 Q65741,65647 65724.5,65661 Q65708,65675 65680,65675 Q65653,65675 65632,65657 Q65611,65639 65602,65610 L65548,65626 Q65562,65677 65597,65706.5 Q65632,65736 65690,65736 Q65743,65736 65774.5,65707 Q65806,65678 65806,65631 Q65806,65594 65788.5,65565.5 Q65771,65537 65731,65498 L65623,65393 L65772,65393 L65760,65332 L65497,65332 L65502,65357"/> 
            <glyph glyph-name="₁" unicode="&#x2081;" horiz-adv-x="290" d=" M65592,65328 Q65522,65394 65522,65448 L65588,65459 Q65588,65426 65606,65407.5 Q65624,65389 65656,65389 Q65695,65389 65717.5,65410.5 Q65740,65432 65740,65465 Q65740,65490 65722.5,65503 Q65705,65516 65673,65516 L65641,65516 L65652,65572 L65685,65572 Q65718,65572 65739,65589.5 Q65760,65607 65760,65633 Q65760,65655 65744.5,65668 Q65729,65681 65705,65681 Q65677,65681 65657,65665.5 Q65637,65650 65627,65622 L65574,65640 Q65586,65683 65621,65711.5 Q65656,65740 65714,65740 Q65768,65740 65797,65712.5 Q65826,65685 65826,65644 Q65826,65611 65808.5,65586 Q65791,65561 65761,65547 Q65782,65537 65794,65516.5 Q65806,65496 65806,65466 Q65806,65407 65763.5,65367.5 Q65721,65328 65650,65328"/> 
            <glyph glyph-name="₂" unicode="&#x2082;" horiz-adv-x="268" d=" M65493,65407 L65498,65434 L65728,65732 L65804,65732 L65752,65468 L65801,65468 L65789,65407 L65740,65407 L65726,65332 L65662,65332 L65676,65407 M65720,65630 L65598,65468 L65688,65468"/> 
            <glyph glyph-name="₃" unicode="&#x2083;" horiz-adv-x="277" d=" M65565,65423 Q65601,65389 65633,65389 Q65675,65389 65696.5,65413.5 Q65718,65438 65718,65475 Q65718,65505 65699,65523 Q65680,65541 65650,65541 Q65606,65541 65573,65504 L65524,65515 L65588,65732 L65813,65732 L65802,65672 L65631,65672 L65599,65574 Q65613,65584 65632.5,65590.5 Q65652,65597 65673,65597 Q65722,65597 65753,65567 Q65784,65537 65784,65484 Q65784,65415 65741.5,65371.5 Q65699,65328 65625,65328 Q65575,65328 65538,65359 Q65501,65390 65500,65437 L65563,65449"/> 
            <glyph glyph-name="₄" unicode="&#x2084;" horiz-adv-x="260" d=" M65584,65328 Q65514,65392 65514,65442 Q65514,65476 65527.5,65505 Q65541,65534 65569,65569 L65702,65736 L65774,65736 L65656,65584 Q65669,65592 65689,65592 Q65735,65592 65765.5,65560 Q65796,65528 65796,65476 Q65796,65408 65751,65368 Q65706,65328 65637,65328 M65683,65389 Q65730,65434 65730,65470 Q65730,65497 65712,65514 Q65694,65531 65666,65531 Q65627,65531 65603.5,65508 Q65580,65485 65580,65450 Q65580,65422 65599,65405.5 Q65618,65389 65647,65389"/> 
            <glyph glyph-name="₅" unicode="&#x2085;" horiz-adv-x="263" d=" M65702,65671 L65548,65671 L65559,65732 L65799,65732 L65794,65705 L65568,65332 L65496,65332"/> 
            <glyph glyph-name="₆" unicode="&#x2086;" horiz-adv-x="268" d=" M65577,65328 Q65508,65389 65508,65436 Q65508,65479 65533.5,65509 Q65559,65539 65597,65550 Q65580,65560 65568.5,65578.5 Q65557,65597 65557,65620 Q65557,65669 65594.5,65702.5 Q65632,65736 65693,65736 Q65745,65736 65774.5,65708 Q65804,65680 65804,65639 Q65804,65573 65735,65541 Q65757,65531 65770.5,65509 Q65784,65487 65784,65457 Q65784,65402 65742,65365 Q65700,65328 65633,65328 M65701,65573 Q65740,65607 65740,65635 Q65740,65657 65726,65669 Q65712,65681 65686,65681 Q65657,65681 65638,65663 Q65619,65645 65619,65621 Q65619,65599 65633,65586 Q65647,65573 65670,65573 M65675,65389 Q65719,65427 65719,65458 Q65719,65484 65702,65499.5 Q65685,65515 65657,65515 Q65619,65515 65597,65494.5 Q65575,65474 65575,65442 Q65575,65417 65593,65403 Q65611,65389 65638,65389"/> 
            <glyph glyph-name="₇" unicode="&#x2087;" horiz-adv-x="287" d=" M65680,65480 Q65671,65472 65648,65472 Q65605,65473 65572.5,65505.5 Q65540,65538 65540,65588 Q65540,65656 65584.5,65696 Q65629,65736 65698,65736 Q65753,65736 65788,65704.5 Q65823,65673 65823,65623 Q65823,65589 65809.5,65559.5 Q65796,65530 65768,65495 L65638,65332 L65566,65332 M65710,65533 Q65756,65579 65756,65614 Q65756,65642 65737,65658.5 Q65718,65675 65690,65675 Q65653,65675 65629.5,65652.5 Q65606,65630 65606,65594 Q65606,65567 65624.5,65550 Q65643,65533 65671,65533"/> 
            <glyph glyph-name="₈" unicode="&#x2088;" horiz-adv-x="402" d=" M151,296 Q77,378 77,455 Q77,517 99,574 Q121,631 165.5,667.5 Q210,704 275,704 Q331,704 366.5,662.5 Q402,621 402,549 Q402,486 380.5,428 Q359,370 314.5,333 Q270,296 206,296 M250,357 Q306,410 321.5,453 Q337,496 337,543 Q337,591 318,617 Q299,643 265,643 Q229,643 201,616.5 Q173,590 157.5,547 Q142,504 142,455 Q142,407 162,382 Q182,357 215,357"/> 
            <glyph glyph-name="₉" unicode="&#x2089;" horiz-adv-x="293" d=" M216,300 L151,300 L211,609 L118,568 L132,639 L269,700 L293,700"/> 
            <glyph glyph-name="€" unicode="&#x20AC;" horiz-adv-x="535" d=" M135,403 Q130,433 130,473 Q130,583 193.5,645.5 Q257,708 364,708 Q431,708 476.5,668.5 Q522,629 535,565 L458,534 Q446,582 420.5,606 Q395,630 352,630 Q285,630 249,584 Q213,538 213,458 Q213,433 217,403 L386,403 L371,325 L226,325 Q226,303 225,291 Q221,220 192.5,173 Q164,126 109,83 Q156,109 200,109 Q218,109 231.5,104 Q245,99 255,94 Q265,89 268,87 Q284,77 296,72 Q308,67 323,67 Q352,67 373,83 Q394,99 428,145 L483,101 Q441,38 401.5,15 Q362,-8 309,-8 Q282,-8 263,-2 Q244,4 224,16 Q206,26 192,30.5 Q178,35 160,35 Q107,35 41,-8 L-2,54 Q68,111 108.5,168.5 Q149,226 149,297 Q149,317 147,325 L64,325 L79,403"/> 
            <glyph glyph-name="™" unicode="&#x2122;" horiz-adv-x="191" d=" M191,-50 L109,-50 L109,750 L191,750"/> 
            <glyph glyph-name="Ω" unicode="&#x2126;" horiz-adv-x="470" d=" M470,700 L470,0 L386,0 L386,625 L181,625 L181,0 L97,0 L97,700"/> 
            <glyph glyph-name="⅓" unicode="&#x2153;" horiz-adv-x="782" d=" M437,65611 L442,65638 L672,65936 L748,65936 L696,65672 L745,65672 L733,65611 L684,65611 L670,65536 L606,65536 L620,65611 M664,65834 L542,65672 L632,65672 M103,-31 L57,15 L736,731 L782,686 M463,300 L398,300 L458,609 L365,568 L379,639 L516,700 L540,700"/> 
            <glyph glyph-name="⅔" unicode="&#x2154;" horiz-adv-x="891" d=" M160,296 Q90,362 90,416 L156,427 Q156,394 174,375.5 Q192,357 224,357 Q263,357 285.5,378.5 Q308,400 308,433 Q308,458 290.5,471 Q273,484 241,484 L209,484 L220,540 L253,540 Q286,540 307,557.5 Q328,575 328,601 Q328,623 312.5,636 Q297,649 273,649 Q245,649 225,633.5 Q205,618 195,590 L142,608 Q154,651 189,679.5 Q224,708 282,708 Q336,708 365,680.5 Q394,653 394,612 Q394,579 376.5,554 Q359,529 329,515 Q350,505 362,484.5 Q374,464 374,434 Q374,375 331.5,335.5 Q289,296 218,296 M212,-31 L166,15 L845,731 L891,686 M546,65611 L551,65638 L781,65936 L857,65936 L805,65672 L854,65672 L842,65611 L793,65611 L779,65536 L715,65536 L729,65611 M773,65834 L651,65672 L741,65672"/> 
            <glyph glyph-name="⅛" unicode="&#x215B;" horiz-adv-x="890" d=" M127,391 Q163,357 195,357 Q237,357 258.5,381.5 Q280,406 280,443 Q280,473 261,491 Q242,509 212,509 Q168,509 135,472 L86,483 L150,700 L375,700 L364,640 L193,640 L161,542 Q175,552 194.5,558.5 Q214,565 235,565 Q284,565 315,535 Q346,505 346,452 Q346,383 303.5,339.5 Q261,296 187,296 Q137,296 100,327 Q63,358 62,405 L125,417 M162,-31 L116,15 L795,731 L841,686 M663,65532 Q594,65593 594,65640 Q594,65683 619.5,65713 Q645,65743 683,65754 Q666,65764 654.5,65782.5 Q643,65801 643,65824 Q643,65873 680.5,65906.5 Q718,65940 779,65940 Q831,65940 860.5,65912 Q890,65884 890,65843 Q890,65777 821,65745 Q843,65735 856.5,65713 Q870,65691 870,65661 Q870,65606 828,65569 Q786,65532 719,65532 M787,65777 Q826,65811 826,65839 Q826,65861 812,65873 Q798,65885 772,65885 Q743,65885 724,65867 Q705,65849 705,65825 Q705,65803 719,65790 Q733,65777 756,65777 M761,65593 Q805,65631 805,65662 Q805,65688 788,65703.5 Q771,65719 743,65719 Q705,65719 683,65698.5 Q661,65678 661,65646 Q661,65621 679,65607 Q697,65593 724,65593"/> 
            <glyph glyph-name="⅜" unicode="&#x215C;" horiz-adv-x="792" d=" M268,639 L114,639 L125,700 L365,700 L360,673 L134,300 L62,300 M65,-31 L19,15 L698,731 L744,686 M565,65532 Q496,65593 496,65640 Q496,65683 521.5,65713 Q547,65743 585,65754 Q568,65764 556.5,65782.5 Q545,65801 545,65824 Q545,65873 582.5,65906.5 Q620,65940 681,65940 Q733,65940 762.5,65912 Q792,65884 792,65843 Q792,65777 723,65745 Q745,65735 758.5,65713 Q772,65691 772,65661 Q772,65606 730,65569 Q688,65532 621,65532 M689,65777 Q728,65811 728,65839 Q728,65861 714,65873 Q700,65885 674,65885 Q645,65885 626,65867 Q607,65849 607,65825 Q607,65803 621,65790 Q635,65777 658,65777 M663,65593 Q707,65631 707,65662 Q707,65688 690,65703.5 Q673,65719 645,65719 Q607,65719 585,65698.5 Q563,65678 563,65646 Q563,65621 581,65607 Q599,65593 626,65593"/> 
            <glyph glyph-name="⅝" unicode="&#x215D;" horiz-adv-x="491" d=" M475,616 L491,546 L351,503 L409,396 L341,351 L283,460 L182,351 L132,396 L232,503 L113,546 L145,617 L268,574 L295,708 L368,708 L341,574"/> 
            <glyph glyph-name="⅞" unicode="&#x215E;" horiz-adv-x="431" d=" M431,-50 L345,-50 L66,750 L152,750"/> 
            <glyph glyph-name="∂" unicode="&#x2202;" horiz-adv-x="1164" d=" M117,-31 L71,15 L750,731 L796,686 M142,388 Q65,463 65,525 Q65,601 116,655 Q140,681 175,694.5 Q210,708 252,708 Q309,708 347.5,671 Q386,634 386,571 Q386,495 335,441 Q284,388 198,388 M253,457 Q313,516 313,562 Q313,599 293.5,619 Q274,639 241,639 Q197,639 167,609.5 Q137,580 137,534 Q137,497 157,477 Q177,457 210,457 M532,-8 Q455,67 455,129 Q455,205 506,259 Q557,312 643,312 Q699,312 737.5,274.5 Q776,237 776,175 Q776,99 725,45 Q674,-8 588,-8 M920,-8 Q843,67 843,129 Q843,205 894,259 Q945,312 1031,312 Q1087,312 1125.5,274.5 Q1164,237 1164,175 Q1164,99 1113,45 Q1062,-8 976,-8 M643,61 Q703,120 703,166 Q703,203 683.5,223 Q664,243 631,243 Q587,243 557,213.5 Q527,184 527,138 Q527,101 547,81 Q567,61 600,61 M1032,61 Q1092,120 1092,166 Q1092,203 1072,223 Q1052,243 1019,243 Q975,243 945,213.5 Q915,184 915,138 Q915,101 935,81 Q955,61 988,61"/> 
            <glyph glyph-name="∆" unicode="&#x2206;" horiz-adv-x="482" d=" M57,29 L262,350 L57,671 L57,700 L482,700 L482,625 L177,625 L345,360 L345,340 L177,75 L482,75 L482,0 L57,0"/> 
            <glyph glyph-name="∏" unicode="&#x220F;" horiz-adv-x="528" d=" M142,313 L41,313 L41,389 L191,389 L277,127 L450,708 L528,708 L311,0 L244,0"/> 
            <glyph glyph-name="√" unicode="&#x221A;" horiz-adv-x="547" d=" M132,632 Q242,708 314,708 Q430,708 488.5,619 Q547,530 547,360 Q547,257 516,174 Q485,91 419.5,41.5 Q354,-8 256,-8 Q196,-8 149.5,19 Q103,46 77,94.5 Q51,143 51,207 Q51,290 87,360 Q123,430 188,471 Q253,512 338,512 Q372,512 406,499.5 Q440,487 458,467 Q449,545 411.5,589 Q374,633 313,633 Q232,633 190,549 L108,572 M272,437 Q187,372 164,320 Q141,268 141,211 Q141,148 173.5,107.5 Q206,67 263,67 Q319,67 362.5,98.5 Q406,130 429.5,181.5 Q453,233 453,292 Q453,362 420.5,399.5 Q388,437 328,437"/> 
            <glyph glyph-name="∞" unicode="&#x221E;" horiz-adv-x="631" d=" M57,74 L180,74 Q74,246 74,418 Q74,507 107.5,572.5 Q141,638 202,673 Q263,708 344,708 Q425,708 486,673 Q547,638 580.5,572.5 Q614,507 614,418 Q614,249 508,74 L631,74 L631,0 L409,0 L409,46 Q525,223 525,415 Q525,509 476.5,567.5 Q428,626 344,626 Q260,626 211.5,567.5 Q163,509 163,415 Q163,221 279,46 L279,0 L57,0"/> 
            <glyph glyph-name="∫" unicode="&#x222B;" horiz-adv-x="565" d=" M246,700 L324,700 L565,22 L565,0 L6,0 L6,22 M460,76 L285,586 L110,76"/> 
            <glyph glyph-name="≈" unicode="&#x2248;" horiz-adv-x="498" d=" M498,389 L498,142 L413,142 L413,313 L60,313 L60,389"/> 
            <glyph glyph-name="≠" unicode="&#x2260;" horiz-adv-x="396" d=" M396,541 L396,455 L124,310 L396,165 L396,79 L41,267 L41,353"/> 
            <glyph glyph-name="◊" unicode="&#x25CA;" horiz-adv-x="844" d=" M323,-94 Q155,-2 106,81 Q57,164 57,272 Q57,410 114.5,510.5 Q172,611 274.5,664.5 Q377,718 508,718 Q607,718 683,679.5 Q759,641 801.5,568 Q844,495 844,393 Q844,271 792.5,189.5 Q741,108 638,108 Q598,108 571.5,128.5 Q545,149 537,180 Q483,108 389,108 Q319,108 277.5,154.5 Q236,201 236,278 Q236,346 265.5,400 Q295,454 347.5,485 Q400,516 468,516 Q504,516 535,501 Q566,486 581,462 L601,509 L664,509 L608,250 Q605,235 605,225 Q605,181 649,181 Q708,181 734,237 Q760,293 760,382 Q760,511 692,578 Q624,645 498,645 Q395,645 314,600 Q233,555 187.5,472 Q142,389 142,278 Q142,186 179.5,118.5 Q217,51 282.5,15 Q348,-21 430,-21 Q500,-21 556.5,-6.5 Q613,8 688,47 L716,-22 Q638,-64 575.5,-79 Q513,-94 424,-94 M447,181 Q513,226 531.5,262.5 Q550,299 550,340 Q550,389 527,416 Q504,443 462,443 Q420,443 387.5,421 Q355,399 337,363 Q319,327 319,286 Q319,236 343.5,208.5 Q368,181 406,181"/> 
            <glyph glyph-name="" unicode="&#xF8FF;" horiz-adv-x="568" d=" M183,-8 Q97,37 72,79.5 Q47,122 47,179 Q47,262 94,319.5 Q141,377 229,417 Q196,481 196,540 Q196,614 242.5,661 Q289,708 372,708 Q437,708 475.5,673.5 Q514,639 514,580 Q514,514 470.5,469.5 Q427,425 342,386 L447,206 Q488,271 520,336 L568,267 Q535,202 488,135 L567,0 L471,0 L430,70 Q388,31 344,11.5 Q300,-8 236,-8 M365,473 Q433,527 433,567 Q433,598 415.5,616.5 Q398,635 364,635 Q326,635 300.5,608.5 Q275,582 275,541 Q275,496 306,446 M293,70 Q358,103 390,138 L265,352 Q131,291 131,191 Q131,137 162.5,103.5 Q194,70 251,70"/> 
        </font>
</defs>
</svg>
